<svg width="64" height="64" viewBox="0 0 64 64" fill="none" xmlns="http://www.w3.org/2000/svg">
<circle cx="32" cy="32" r="32" fill="#0BAA60"/>
<path d="M45.2585 37.3725L39.5709 34.935C39.328 34.8314 39.0579 34.8096 38.8015 34.8728C38.545 34.936 38.3161 35.0808 38.149 35.2854L35.6302 38.3628C31.6772 36.499 28.496 33.3177 26.6321 29.3647L29.7095 26.8459C29.9145 26.6792 30.0596 26.4502 30.1229 26.1936C30.1861 25.9371 30.164 25.6669 30.0599 25.424L27.6224 19.7364C27.5082 19.4746 27.3062 19.2608 27.0513 19.1319C26.7963 19.0031 26.5044 18.9672 26.2259 19.0305L20.9445 20.2493C20.676 20.3113 20.4364 20.4625 20.2648 20.6782C20.0933 20.894 19.9999 21.1615 20 21.4371C20 34.4627 30.5576 45 43.5629 45C43.8386 45.0002 44.1062 44.9069 44.3221 44.7353C44.5379 44.5638 44.6892 44.3241 44.7512 44.0555L45.97 38.7741C46.0329 38.4942 45.9963 38.2011 45.8664 37.9453C45.7366 37.6895 45.5216 37.487 45.2585 37.3725Z" fill="white"/>
</svg>
