<svg width="21" height="21" viewBox="0 0 21 21" fill="none" xmlns="http://www.w3.org/2000/svg">
<path d="M17.4531 2.42676H4.11979C3.67776 2.42676 3.25384 2.60235 2.94128 2.91491C2.62872 3.22747 2.45313 3.6514 2.45312 4.09342V19.0934L5.78646 15.7601H17.4531C17.8952 15.7601 18.3191 15.5845 18.6316 15.2719C18.9442 14.9594 19.1198 14.5355 19.1198 14.0934V4.09342C19.1198 3.6514 18.9442 3.22747 18.6316 2.91491C18.3191 2.60235 17.8952 2.42676 17.4531 2.42676ZM5.78646 8.26009H15.7865V9.92676H5.78646M12.4531 12.4268H5.78646V10.7601H12.4531M15.7865 7.42676H5.78646V5.76009H15.7865" fill="black"/>
</svg>
