<svg width="186" height="51" viewBox="0 0 186 51" fill="none" xmlns="http://www.w3.org/2000/svg">
<path d="M33.2952 12.4854H10.9071L0 37.4568L33.2952 12.4854Z" fill="#4A36EC"/>
<path d="M6.9362 37.457H29.3244L40.2314 12.4856L6.9362 37.457Z" fill="#4A36EC"/>
<path d="M56.0852 37.3947C50.0397 37.3947 46.0466 32.0955 46.0466 26.9828C46.0466 21.5343 49.6292 16.571 55.6001 16.6083C62.0935 16.6083 66.6837 21.609 64.9297 28.9607H50.9353C51.1592 31.2371 53.5476 33.4016 56.5331 33.4016C57.9885 33.4389 60.7127 32.6925 61.4591 31.573L64.8924 34.2226C62.8772 36.4617 59.6678 37.3947 56.0852 37.3947ZM50.898 25.0796H60.5635C60.8247 23.3629 59.5559 20.5641 55.7494 20.5641C52.5773 20.5641 50.898 22.9898 50.898 25.0796ZM71.6721 37.0215V20.7728H66.4248V16.5988H81.3021V20.7728H76.0548V37.0215H71.6721ZM82.65 37.0215V25.2662C82.65 20.4148 85.5235 16.7203 90.4868 16.7576C92.8752 16.7576 94.8904 17.8025 96.0473 19.3699C97.2041 17.8025 99.2193 16.7203 101.608 16.7576C106.571 16.7576 109.407 20.4148 109.407 25.2662V37.0215H104.929V25.2662C104.929 23.0644 103.772 21.2358 101.608 21.2358C99.4806 21.2358 98.2864 23.0644 98.2864 25.2662V37.0215H93.7708V25.2662C93.7708 23.0644 92.614 21.2358 90.4868 21.2358C88.3224 21.2358 87.1282 23.0644 87.1282 25.2662V37.0215H82.65ZM111.098 35.1556L112.665 31.4237C117.778 34.2599 124.645 35.1556 124.682 31.4984C124.682 28.2143 111.247 29.5951 111.658 22.0941C112.106 15.6753 121.659 14.4438 128.862 19.2952L127.033 22.3927C122.853 19.1086 116.434 19.4072 116.323 22.318C116.136 25.6767 129.309 24.781 129.309 31.3118C129.309 37.3574 122.256 40.6414 111.098 35.1556Z" fill="#1C1D20"/>
<path d="M146.713 33.0316C146.685 33.0877 146.624 33.2047 146.531 33.3824C146.437 33.5507 146.316 33.7518 146.166 33.9857C146.016 34.2101 145.839 34.4533 145.633 34.7152C145.427 34.9678 145.203 35.2016 144.959 35.4167C144.716 35.6319 144.454 35.8096 144.174 35.9499C143.893 36.0902 143.603 36.1603 143.304 36.1603C142.817 36.1603 142.406 36.0762 142.069 35.9078C141.732 35.7301 141.456 35.5337 141.241 35.3185C141.092 35.6459 140.909 35.9452 140.694 36.2165C140.479 36.4877 140.241 36.7215 139.979 36.918C139.717 37.1237 139.436 37.2828 139.137 37.395C138.847 37.5072 138.548 37.5634 138.239 37.5634C137.668 37.5634 137.182 37.395 136.78 37.0583C136.378 36.7215 136.041 36.2726 135.77 35.7114C135.508 35.1408 135.302 34.4814 135.152 33.7331C135.003 32.9848 134.886 32.1992 134.802 31.3761C134.727 30.553 134.68 29.7205 134.661 28.8787C134.642 28.0369 134.633 27.2372 134.633 26.4795C134.633 25.0297 134.675 23.7764 134.759 22.7194C134.844 21.6532 134.956 20.7506 135.096 20.0116C135.246 19.2634 135.414 18.6601 135.601 18.2017C135.798 17.7341 136.003 17.374 136.219 17.1214C136.434 16.8595 136.653 16.6818 136.878 16.5883C137.102 16.4947 137.322 16.448 137.537 16.448C137.883 16.448 138.187 16.5509 138.449 16.7566C138.721 16.9624 138.945 17.2524 139.123 17.6265C139.31 17.9913 139.45 18.4356 139.544 18.9594C139.637 19.4832 139.684 20.0584 139.684 20.6851C139.684 21.6859 139.576 22.7194 139.361 23.7857C139.146 24.852 138.866 25.9183 138.519 26.9846C138.183 28.0416 137.804 29.0845 137.383 30.1133C136.962 31.1329 136.546 32.1009 136.134 33.0176C136.19 33.4759 136.275 33.9155 136.387 34.3364C136.499 34.748 136.644 35.1174 136.822 35.4448C137 35.7628 137.21 36.02 137.453 36.2165C137.696 36.4035 137.977 36.4971 138.295 36.4971C138.613 36.4971 138.912 36.4082 139.193 36.2305C139.474 36.0434 139.717 35.8049 139.923 35.515C140.128 35.2156 140.287 34.8789 140.4 34.5048C140.521 34.1306 140.582 33.7472 140.582 33.3543C140.582 33.0924 140.554 32.8305 140.498 32.5686C140.451 32.2974 140.371 32.0589 140.259 31.8531C140.156 31.638 140.025 31.4649 139.866 31.334C139.707 31.203 139.516 31.1375 139.291 31.1375C139.123 31.1375 138.992 31.175 138.898 31.2498C138.805 31.3153 138.735 31.3948 138.688 31.4883C138.641 31.5725 138.613 31.6567 138.604 31.7408C138.594 31.825 138.59 31.8811 138.59 31.9092C138.59 32.0402 138.618 32.1711 138.674 32.302C138.73 32.433 138.838 32.5499 138.997 32.6528C139.156 32.765 139.235 32.9194 139.235 33.1158C139.235 33.2748 139.179 33.4011 139.067 33.4946C138.964 33.5881 138.847 33.6349 138.716 33.6349C138.529 33.6349 138.36 33.5788 138.211 33.4665C138.071 33.3543 137.949 33.214 137.846 33.0456C137.743 32.8679 137.664 32.6809 137.608 32.4844C137.551 32.288 137.523 32.1056 137.523 31.9373C137.523 31.666 137.57 31.4181 137.664 31.1937C137.757 30.9598 137.883 30.7634 138.042 30.6044C138.211 30.436 138.398 30.3098 138.604 30.2256C138.819 30.132 139.043 30.0853 139.277 30.0853C139.679 30.0853 140.025 30.1788 140.315 30.3659C140.615 30.553 140.863 30.8008 141.059 31.1095C141.255 31.4181 141.4 31.7689 141.494 32.1617C141.587 32.5546 141.634 32.9521 141.634 33.3543C141.634 33.5881 141.62 33.8173 141.592 34.0418C141.63 34.1166 141.69 34.2148 141.774 34.3364C141.859 34.458 141.971 34.5749 142.111 34.6872C142.252 34.7994 142.42 34.8976 142.616 34.9818C142.813 35.066 143.042 35.1081 143.304 35.1081C143.528 35.1081 143.757 35.0239 143.991 34.8555C144.234 34.6778 144.464 34.4627 144.679 34.2101C144.903 33.9483 145.109 33.6723 145.296 33.3824C145.483 33.0831 145.637 32.8071 145.759 32.5546C145.806 32.4611 145.871 32.3909 145.955 32.3441C146.04 32.288 146.133 32.26 146.236 32.26C146.395 32.26 146.521 32.3161 146.615 32.4283C146.718 32.5406 146.769 32.6668 146.769 32.8071C146.769 32.8633 146.751 32.9381 146.713 33.0316ZM135.868 31.2217C136.186 30.436 136.509 29.6129 136.836 28.7524C137.163 27.8825 137.458 26.9986 137.72 26.1007C137.982 25.2028 138.197 24.2955 138.365 23.3789C138.534 22.4622 138.618 21.5596 138.618 20.671C138.618 20.3343 138.599 19.9836 138.562 19.6188C138.534 19.2446 138.477 18.9032 138.393 18.5946C138.309 18.2859 138.192 18.0287 138.042 17.8229C137.902 17.6171 137.72 17.5143 137.495 17.5143C137.42 17.5143 137.322 17.5657 137.201 17.6686C137.088 17.7621 136.967 17.9352 136.836 18.1877C136.705 18.4309 136.574 18.7723 136.443 19.2119C136.312 19.6515 136.19 20.2127 136.078 20.8955C135.975 21.569 135.887 22.3827 135.812 23.3368C135.746 24.2908 135.713 25.4132 135.713 26.704C135.713 27.1343 135.718 27.5739 135.727 28.0228C135.737 28.4625 135.746 28.8834 135.756 29.2856C135.774 29.6878 135.793 30.0572 135.812 30.3939C135.83 30.7307 135.849 31.0066 135.868 31.2217ZM150.144 35.3466C149.816 35.8797 149.433 36.3006 148.993 36.6093C148.563 36.918 148.128 37.0723 147.688 37.0723C147.333 37.0723 147.015 37.0068 146.734 36.8759C146.454 36.7449 146.211 36.5625 146.005 36.3287C145.799 36.0855 145.64 35.7956 145.528 35.4588C145.425 35.1221 145.374 34.7433 145.374 34.3224C145.374 33.6676 145.434 33.0877 145.556 32.5827C145.687 32.0776 145.827 31.6567 145.977 31.3199C146.126 30.9739 146.267 30.712 146.398 30.5342C146.529 30.3565 146.594 30.2677 146.594 30.2677C146.641 30.2116 146.697 30.1695 146.762 30.1414C146.837 30.1133 146.912 30.0993 146.987 30.0993C147.137 30.0993 147.258 30.1554 147.352 30.2677C147.455 30.3706 147.506 30.4922 147.506 30.6325C147.506 30.6886 147.492 30.7447 147.464 30.8008C147.445 30.8569 147.422 30.9131 147.394 30.9692C147.347 31.0534 147.272 31.1843 147.169 31.362C147.066 31.5304 146.959 31.7549 146.847 32.0355C146.734 32.3161 146.636 32.6481 146.552 33.0316C146.468 33.4058 146.426 33.836 146.426 34.3224C146.426 34.8742 146.533 35.2951 146.748 35.5851C146.973 35.8657 147.286 36.006 147.688 36.006C147.857 36.006 148.049 35.9546 148.264 35.8517C148.488 35.7394 148.703 35.5711 148.909 35.3466C149.124 35.1221 149.311 34.8368 149.47 34.4908C149.629 34.1447 149.732 33.7378 149.779 33.2701L149.989 30.8569C150.008 30.7166 150.069 30.5997 150.172 30.5062C150.275 30.4127 150.396 30.3659 150.537 30.3659C150.696 30.3659 150.822 30.4267 150.915 30.5483C151.009 30.6605 151.056 30.7915 151.056 30.9411L150.873 33.2701C150.855 33.4665 150.859 33.7238 150.887 34.0418C150.925 34.3598 150.995 34.6731 151.098 34.9818C151.201 35.2905 151.355 35.557 151.561 35.7815C151.767 35.9967 152.038 36.1042 152.375 36.1042C152.618 36.1042 152.856 36.0434 153.09 35.9218C153.324 35.7909 153.548 35.6225 153.764 35.4167C153.979 35.211 154.175 34.9818 154.353 34.7293C154.54 34.4674 154.708 34.2055 154.858 33.9436C155.017 33.6817 155.153 33.4338 155.265 33.2C155.377 32.9568 155.471 32.751 155.545 32.5827C155.592 32.4798 155.658 32.4003 155.742 32.3441C155.826 32.288 155.92 32.26 156.022 32.26C156.191 32.26 156.322 32.3161 156.415 32.4283C156.509 32.5406 156.556 32.6622 156.556 32.7931C156.556 32.8679 156.542 32.9381 156.513 33.0036C156.476 33.0784 156.401 33.2374 156.289 33.4806C156.186 33.7144 156.046 33.9857 155.868 34.2943C155.7 34.5936 155.494 34.9117 155.251 35.2484C155.008 35.5851 154.736 35.8984 154.437 36.1884C154.138 36.469 153.81 36.7028 153.455 36.8899C153.109 37.0676 152.735 37.1565 152.332 37.1565C151.781 37.1565 151.322 37.0021 150.958 36.6935C150.593 36.3755 150.321 35.9265 150.144 35.3466ZM160.716 32.8352C161.174 34.9958 161.838 36.0762 162.708 36.0762C163.045 36.0762 163.367 35.9546 163.676 35.7114C163.985 35.4588 164.27 35.1548 164.532 34.7994C164.803 34.4346 165.042 34.0511 165.248 33.6489C165.453 33.2467 165.622 32.896 165.753 32.5967C165.846 32.3722 166.01 32.26 166.244 32.26C166.393 32.26 166.52 32.3161 166.622 32.4283C166.725 32.5406 166.777 32.6622 166.777 32.7931C166.777 32.8679 166.763 32.9334 166.735 32.9895C166.669 33.1485 166.571 33.3637 166.44 33.6349C166.318 33.8968 166.164 34.1821 165.977 34.4908C165.799 34.7901 165.598 35.0987 165.374 35.4167C165.149 35.7348 164.901 36.02 164.63 36.2726C164.359 36.5251 164.069 36.7356 163.76 36.9039C163.461 37.0629 163.143 37.1425 162.806 37.1425C162.18 37.1425 161.642 36.9273 161.193 36.4971C160.744 36.0575 160.356 35.3372 160.028 34.3364C159.579 35.2905 159.126 35.9826 158.667 36.4129C158.209 36.8431 157.713 37.0583 157.18 37.0583C156.9 37.0583 156.628 37.0115 156.366 36.918C156.105 36.8338 155.875 36.6888 155.679 36.483C155.483 36.2773 155.324 36.0154 155.202 35.6973C155.08 35.37 155.02 34.9725 155.02 34.5048C155.02 33.8594 155.132 33.2655 155.356 32.723C155.581 32.1805 155.871 31.7175 156.226 31.334C156.582 30.9411 156.974 30.6371 157.405 30.422C157.844 30.2069 158.279 30.0993 158.709 30.0993C158.85 30.0993 158.971 30.1508 159.074 30.2536C159.177 30.3472 159.229 30.4688 159.229 30.6184C159.229 30.7494 159.186 30.8663 159.102 30.9692C159.018 31.0721 158.906 31.1329 158.766 31.1516C158.485 31.189 158.186 31.2778 157.868 31.4181C157.55 31.5584 157.255 31.7642 156.984 32.0355C156.722 32.2974 156.502 32.6341 156.324 33.0456C156.156 33.4572 156.072 33.9483 156.072 34.5188C156.072 34.9865 156.165 35.3513 156.352 35.6132C156.549 35.8751 156.829 36.006 157.194 36.006C157.344 36.006 157.503 35.9686 157.671 35.8938C157.84 35.8096 158.017 35.6506 158.204 35.4167C158.401 35.1829 158.611 34.8509 158.836 34.4206C159.07 33.9903 159.327 33.4245 159.607 32.723C159.448 31.8998 159.303 30.9505 159.172 29.8748C159.042 28.7992 158.976 27.5973 158.976 26.2691C158.976 25.6892 158.995 25.0859 159.032 24.4592C159.07 23.8232 159.13 23.2058 159.215 22.6072C159.299 21.9992 159.411 21.424 159.551 20.8815C159.692 20.339 159.86 19.862 160.056 19.4504C160.262 19.0389 160.501 18.7162 160.772 18.4823C161.043 18.2392 161.352 18.1176 161.698 18.1176C162.007 18.1176 162.268 18.2017 162.484 18.3701C162.699 18.5385 162.872 18.7723 163.003 19.0716C163.143 19.3709 163.246 19.731 163.311 20.1519C163.377 20.5728 163.41 21.0358 163.41 21.5409C163.41 22.6259 163.316 23.7109 163.129 24.7959C162.942 25.8809 162.708 26.9191 162.427 27.9106C162.156 28.9021 161.866 29.8187 161.558 30.6605C161.249 31.5023 160.968 32.2272 160.716 32.8352ZM162.357 21.5269C162.357 21.293 162.348 21.0405 162.329 20.7693C162.32 20.498 162.287 20.2455 162.231 20.0116C162.184 19.7684 162.119 19.5673 162.035 19.4083C161.95 19.2493 161.838 19.1698 161.698 19.1698C161.464 19.1698 161.244 19.3756 161.038 19.7871C160.842 20.1987 160.669 20.7412 160.519 21.4146C160.37 22.0787 160.248 22.8364 160.155 23.6875C160.07 24.5293 160.028 25.3805 160.028 26.241C160.028 27.0641 160.061 27.8872 160.127 28.7103C160.192 29.5334 160.267 30.2677 160.351 30.9131C160.622 30.1928 160.879 29.4539 161.123 28.6963C161.366 27.9293 161.576 27.1483 161.754 26.3533C161.941 25.5582 162.086 24.7585 162.189 23.9541C162.301 23.1404 162.357 22.3313 162.357 21.5269ZM170.923 32.8352C171.381 34.9958 172.045 36.0762 172.915 36.0762C173.252 36.0762 173.575 35.9546 173.883 35.7114C174.192 35.4588 174.477 35.1548 174.739 34.7994C175.01 34.4346 175.249 34.0511 175.455 33.6489C175.661 33.2467 175.829 32.896 175.96 32.5967C176.053 32.3722 176.217 32.26 176.451 32.26C176.601 32.26 176.727 32.3161 176.83 32.4283C176.933 32.5406 176.984 32.6622 176.984 32.7931C176.984 32.8679 176.97 32.9334 176.942 32.9895C176.876 33.1485 176.778 33.3637 176.647 33.6349C176.526 33.8968 176.371 34.1821 176.184 34.4908C176.007 34.7901 175.805 35.0987 175.581 35.4167C175.357 35.7348 175.109 36.02 174.837 36.2726C174.566 36.5251 174.276 36.7356 173.968 36.9039C173.668 37.0629 173.35 37.1425 173.013 37.1425C172.387 37.1425 171.849 36.9273 171.4 36.4971C170.951 36.0575 170.563 35.3372 170.236 34.3364C169.787 35.2905 169.333 35.9826 168.875 36.4129C168.416 36.8431 167.921 37.0583 167.387 37.0583C167.107 37.0583 166.836 37.0115 166.574 36.918C166.312 36.8338 166.083 36.6888 165.886 36.483C165.69 36.2773 165.531 36.0154 165.409 35.6973C165.288 35.37 165.227 34.9725 165.227 34.5048C165.227 33.8594 165.339 33.2655 165.563 32.723C165.788 32.1805 166.078 31.7175 166.433 31.334C166.789 30.9411 167.182 30.6371 167.612 30.422C168.051 30.2069 168.486 30.0993 168.917 30.0993C169.057 30.0993 169.179 30.1508 169.281 30.2536C169.384 30.3472 169.436 30.4688 169.436 30.6184C169.436 30.7494 169.394 30.8663 169.31 30.9692C169.225 31.0721 169.113 31.1329 168.973 31.1516C168.692 31.189 168.393 31.2778 168.075 31.4181C167.757 31.5584 167.462 31.7642 167.191 32.0355C166.929 32.2974 166.709 32.6341 166.532 33.0456C166.363 33.4572 166.279 33.9483 166.279 34.5188C166.279 34.9865 166.373 35.3513 166.56 35.6132C166.756 35.8751 167.037 36.006 167.401 36.006C167.551 36.006 167.71 35.9686 167.878 35.8938C168.047 35.8096 168.225 35.6506 168.412 35.4167C168.608 35.1829 168.818 34.8509 169.043 34.4206C169.277 33.9903 169.534 33.4245 169.815 32.723C169.656 31.8998 169.511 30.9505 169.38 29.8748C169.249 28.7992 169.183 27.5973 169.183 26.2691C169.183 25.6892 169.202 25.0859 169.239 24.4592C169.277 23.8232 169.338 23.2058 169.422 22.6072C169.506 21.9992 169.618 21.424 169.758 20.8815C169.899 20.339 170.067 19.862 170.264 19.4504C170.469 19.0389 170.708 18.7162 170.979 18.4823C171.25 18.2392 171.559 18.1176 171.905 18.1176C172.214 18.1176 172.476 18.2017 172.691 18.3701C172.906 18.5385 173.079 18.7723 173.21 19.0716C173.35 19.3709 173.453 19.731 173.519 20.1519C173.584 20.5728 173.617 21.0358 173.617 21.5409C173.617 22.6259 173.523 23.7109 173.336 24.7959C173.149 25.8809 172.915 26.9191 172.635 27.9106C172.363 28.9021 172.073 29.8187 171.765 30.6605C171.456 31.5023 171.176 32.2272 170.923 32.8352ZM172.565 21.5269C172.565 21.293 172.555 21.0405 172.536 20.7693C172.527 20.498 172.494 20.2455 172.438 20.0116C172.391 19.7684 172.326 19.5673 172.242 19.4083C172.158 19.2493 172.045 19.1698 171.905 19.1698C171.671 19.1698 171.451 19.3756 171.246 19.7871C171.049 20.1987 170.876 20.7412 170.727 21.4146C170.577 22.0787 170.455 22.8364 170.362 23.6875C170.278 24.5293 170.236 25.3805 170.236 26.241C170.236 27.0641 170.268 27.8872 170.334 28.7103C170.399 29.5334 170.474 30.2677 170.558 30.9131C170.829 30.1928 171.087 29.4539 171.33 28.6963C171.573 27.9293 171.784 27.1483 171.961 26.3533C172.148 25.5582 172.293 24.7585 172.396 23.9541C172.508 23.1404 172.565 22.3313 172.565 21.5269ZM180.906 37.1144C181.233 36.787 181.565 36.455 181.902 36.1182C182.239 35.7722 182.566 35.4121 182.884 35.0379C183.202 34.6638 183.497 34.2756 183.768 33.8734C184.048 33.4619 184.296 33.0269 184.511 32.5686C184.558 32.4657 184.624 32.3909 184.708 32.3441C184.792 32.288 184.886 32.26 184.989 32.26C185.148 32.26 185.274 32.3161 185.367 32.4283C185.47 32.5406 185.522 32.6668 185.522 32.8071C185.522 32.882 185.508 32.9521 185.48 33.0176C185.19 33.6256 184.858 34.1821 184.483 34.6872C184.109 35.1923 183.716 35.674 183.305 36.1323C182.893 36.5812 182.477 37.0162 182.056 37.4371C181.635 37.8673 181.233 38.2976 180.85 38.7279C180.812 39.3732 180.812 40.0186 180.85 40.664C180.887 41.3188 180.906 42.0109 180.906 42.7405C180.906 43.3391 180.887 43.9377 180.85 44.5363C180.812 45.135 180.751 45.7055 180.667 46.248C180.583 46.7999 180.466 47.3143 180.316 47.7913C180.176 48.2684 179.994 48.6799 179.769 49.026C179.545 49.3814 179.283 49.6574 178.984 49.8538C178.684 50.0595 178.334 50.1624 177.931 50.1624C177.267 50.1624 176.757 49.9333 176.402 49.475C176.047 49.0166 175.869 48.3759 175.869 47.5528C175.869 47.1039 175.916 46.6222 176.009 46.1077C176.112 45.5933 176.252 45.0601 176.43 44.5083C176.608 43.9658 176.818 43.4139 177.061 42.8527C177.314 42.2915 177.585 41.7443 177.875 41.2112C178.165 40.6781 178.474 40.1683 178.801 39.6819C179.129 39.2049 179.461 38.7699 179.797 38.3771C179.816 37.9281 179.835 37.4605 179.853 36.9741C179.882 36.4971 179.91 36.0528 179.938 35.6412C179.694 36.0715 179.39 36.4176 179.026 36.6795C178.67 36.9414 178.277 37.0723 177.847 37.0723C177.136 37.0723 176.58 36.8338 176.178 36.3568C175.775 35.8797 175.574 35.225 175.574 34.3925C175.574 33.7846 175.63 33.2327 175.743 32.737C175.864 32.2319 175.99 31.8016 176.121 31.4462C176.262 31.0814 176.388 30.8055 176.5 30.6184C176.612 30.422 176.669 30.3285 176.669 30.3378C176.772 30.1788 176.916 30.0993 177.104 30.0993C177.263 30.0993 177.389 30.1554 177.482 30.2677C177.585 30.3706 177.637 30.4922 177.637 30.6325C177.637 30.7353 177.609 30.8289 177.553 30.9131C177.562 30.9037 177.515 30.9832 177.412 31.1516C177.319 31.3106 177.211 31.5444 177.09 31.8531C176.977 32.1617 176.87 32.5312 176.767 32.9615C176.673 33.3917 176.627 33.8641 176.627 34.3785C176.627 34.8929 176.72 35.2951 176.907 35.5851C177.094 35.8751 177.398 36.02 177.819 36.02C178.352 36.02 178.834 35.6272 179.264 34.8415C179.694 34.0465 180.059 32.896 180.359 31.3901C180.377 31.2685 180.433 31.1703 180.527 31.0955C180.62 31.0113 180.733 30.9692 180.864 30.9692C181.013 30.9692 181.14 31.0206 181.242 31.1235C181.345 31.2264 181.397 31.3527 181.397 31.5023C181.397 31.5304 181.378 31.6988 181.341 32.0074C181.303 32.3067 181.256 32.7089 181.2 33.214C181.154 33.7191 181.102 34.3084 181.046 34.9818C180.99 35.6459 180.943 36.3568 180.906 37.1144ZM179.783 40.0888C179.362 40.6968 178.974 41.3375 178.619 42.0109C178.273 42.6844 177.973 43.3531 177.721 44.0172C177.468 44.6813 177.272 45.3174 177.132 45.9253C176.991 46.5333 176.921 47.0758 176.921 47.5528C176.921 48.0392 177.001 48.418 177.16 48.6893C177.319 48.9699 177.571 49.1102 177.917 49.1102C178.226 49.1102 178.497 48.9558 178.731 48.6472C178.974 48.3479 179.175 47.9176 179.334 47.3564C179.503 46.7952 179.629 46.1124 179.713 45.308C179.797 44.513 179.839 43.6197 179.839 42.6282C179.839 42.226 179.83 41.8192 179.811 41.4076C179.802 40.9961 179.793 40.5565 179.783 40.0888Z" fill="#1C1D20"/>
</svg>
