<?xml version="1.0" ?><!DOCTYPE svg  PUBLIC '-//W3C//DTD SVG 1.1//EN'  'http://www.w3.org/Graphics/SVG/1.1/DTD/svg11.dtd'><svg enable-background="new 0 0 512 512" height="512px" id="Layer_1" version="1.1" viewBox="0 0 512 512" width="512px" xml:space="preserve" xmlns="http://www.w3.org/2000/svg" xmlns:xlink="http://www.w3.org/1999/xlink"><g><path d="M395.32,149.705V14.363h-71.052v64.438l-67.888-67.869v-0.286l-1.264-1.227l-0.12,0.139l-0.12-0.139   l-1.302,1.227v0.286L2.002,262.118l33.072,33.13l31.486-30.25v135.82h376.845v-135.82l31.47,30.25l33.044-33.13L395.32,149.705z    M254.951,295.101c-33.302,0-60.27-26.986-60.27-60.252c0-33.312,26.968-60.271,60.27-60.271c33.285,0,60.26,26.958,60.26,60.271   C315.211,268.114,288.235,295.101,254.951,295.101z" fill="#174A97"/><rect fill="#174A97" height="31.727" width="172.518" x="168.701" y="470.597"/></g></svg>