<?xml version="1.0" ?><!DOCTYPE svg  PUBLIC '-//W3C//DTD SVG 1.1//EN'  'http://www.w3.org/Graphics/SVG/1.1/DTD/svg11.dtd'><svg enable-background="new 0 0 24 24" height="24px" id="Layer_1" version="1.1" viewBox="0 0 24 24" width="24px" xml:space="preserve" xmlns="http://www.w3.org/2000/svg" xmlns:xlink="http://www.w3.org/1999/xlink"><g><g><path d="M19.1,23.5c-2.4,0-4.3-1.9-4.4-4.3l-7.3-3.7c-0.8,0.5-1.6,0.8-2.6,0.8c-2.4,0-4.4-2-4.4-4.4c0-2.4,2-4.4,4.4-4.4    c0.9,0,1.8,0.3,2.6,0.8l7.3-3.6c0-2.4,2-4.3,4.4-4.3c2.4,0,4.4,2,4.4,4.4c0,2.4-2,4.4-4.4,4.4c-0.9,0-1.8-0.3-2.6-0.8L9.4,12    l7.1,3.6c0.7-0.5,1.6-0.8,2.6-0.8c2.4,0,4.4,2,4.4,4.4C23.5,21.5,21.5,23.5,19.1,23.5z M7.4,14.5c0.1,0,0.2,0,0.2,0.1l7.9,3.9    c0.2,0.1,0.3,0.3,0.3,0.5c0,0,0,0.1,0,0.1c0,1.9,1.5,3.4,3.4,3.4c1.9,0,3.4-1.5,3.4-3.4c0-1.9-1.5-3.4-3.4-3.4    c-0.8,0-1.5,0.3-2.2,0.8c-0.2,0.1-0.4,0.2-0.5,0.1l-7.9-3.9c-0.2-0.1-0.3-0.3-0.3-0.5c0,0,0-0.1,0-0.1v-0.1c0,0,0-0.1,0-0.1    c0-0.2,0.1-0.4,0.3-0.5l7.9-3.9c0.2-0.1,0.4-0.1,0.5,0.1c0.6,0.5,1.4,0.8,2.2,0.8c1.9,0,3.4-1.5,3.4-3.4c0-1.9-1.5-3.4-3.4-3.4    c-1.9,0-3.4,1.5-3.4,3.4c0,0,0,0.2,0,0.2c0,0.2-0.1,0.4-0.3,0.5L7.6,9.5C7.4,9.6,7.2,9.6,7.1,9.4C6.4,8.9,5.7,8.6,4.9,8.6    C3,8.6,1.5,10.1,1.5,12c0,1.9,1.5,3.4,3.4,3.4c0.8,0,1.5-0.3,2.2-0.8C7.1,14.5,7.3,14.5,7.4,14.5z"/></g></g></svg>