<?xml version="1.0" encoding="UTF-8"?>
<!DOCTYPE svg PUBLIC "-//W3C//DTD SVG 1.1//EN" "http://www.w3.org/Graphics/SVG/1.1/DTD/svg11.dtd">
<svg xmlns="http://www.w3.org/2000/svg" version="1.1" width="64px" height="64px" style="shape-rendering:geometricPrecision; text-rendering:geometricPrecision; image-rendering:optimizeQuality; fill-rule:evenodd; clip-rule:evenodd" xmlns:xlink="http://www.w3.org/1999/xlink">
<g><path style="opacity:0.557" fill="#02415f" d="M 44.5,10.5 C 43.8333,9.83333 43.1667,9.16667 42.5,8.5C 42.1898,6.85637 41.1898,5.85637 39.5,5.5C 34.1667,4.16667 28.8333,4.16667 23.5,5.5C 21.8102,5.85637 20.8102,6.85637 20.5,8.5C 19.8333,9.16667 19.1667,9.83333 18.5,10.5C 18.0807,7.67546 19.0807,5.50879 21.5,4C 28.1409,2.04107 34.8075,2.04107 41.5,4C 43.4506,5.73423 44.4506,7.9009 44.5,10.5 Z"/></g>
<g><path style="opacity:0.951" fill="#379dd5" d="M 23.5,5.5 C 28.8333,4.16667 34.1667,4.16667 39.5,5.5C 38.4925,7.26799 39.1592,8.60133 41.5,9.5C 42.1067,9.37642 42.44,9.04309 42.5,8.5C 43.1667,9.16667 43.8333,9.83333 44.5,10.5C 44.5789,12.6663 45.2455,14.6663 46.5,16.5C 46.5177,18.3726 46.0177,18.7059 45,17.5C 44.8309,30.34 44.3309,43.0066 43.5,55.5C 41.8089,56.8637 40.1423,58.197 38.5,59.5C 33.8215,59.6658 29.1548,59.4992 24.5,59C 21.9774,57.6403 19.9774,55.807 18.5,53.5C 18.6665,41.4954 18.4999,29.4954 18,17.5C 16.9823,18.7059 16.4823,18.3726 16.5,16.5C 17.7545,14.6663 18.4211,12.6663 18.5,10.5C 19.1667,9.83333 19.8333,9.16667 20.5,8.5C 20.56,9.04309 20.8933,9.37642 21.5,9.5C 22.8333,8.5 24.1667,7.5 25.5,6.5C 25.0431,5.70245 24.3764,5.36912 23.5,5.5 Z"/></g>
<g><path style="opacity:1" fill="#89b6dd" d="M 23.5,5.5 C 24.3764,5.36912 25.0431,5.70245 25.5,6.5C 24.1667,7.5 22.8333,8.5 21.5,9.5C 20.8933,9.37642 20.56,9.04309 20.5,8.5C 20.8102,6.85637 21.8102,5.85637 23.5,5.5 Z"/></g>
<g><path style="opacity:1" fill="#81afd6" d="M 39.5,5.5 C 41.1898,5.85637 42.1898,6.85637 42.5,8.5C 42.44,9.04309 42.1067,9.37642 41.5,9.5C 39.1592,8.60133 38.4925,7.26799 39.5,5.5 Z"/></g>
<g><path style="opacity:1" fill="#003752" d="M 41.5,18.5 C 41.2962,21.5176 40.9629,24.5176 40.5,27.5C 34.99,26.3164 29.49,26.3164 24,27.5C 22.9701,27.1639 22.4701,26.4972 22.5,25.5C 22.6953,19.1752 26.0286,16.5086 32.5,17.5C 35.5175,17.7683 38.5175,18.1016 41.5,18.5 Z"/></g>
<g><path style="opacity:1" fill="#155f86" d="M 41.5,17.5 C 42.2216,17.9175 42.7216,18.5842 43,19.5C 43.6667,28.1667 43.6667,36.8333 43,45.5C 42.0656,44.1416 41.2323,42.8083 40.5,41.5C 40.5,41.1667 40.5,40.8333 40.5,40.5C 40.5,36.1667 40.5,31.8333 40.5,27.5C 40.9629,24.5176 41.2962,21.5176 41.5,18.5C 41.5,18.1667 41.5,17.8333 41.5,17.5 Z"/></g>
<g><path style="opacity:1" fill="#0d4f71" d="M 41.5,17.5 C 41.5,17.8333 41.5,18.1667 41.5,18.5C 38.5175,18.1016 35.5175,17.7683 32.5,17.5C 26.0286,16.5086 22.6953,19.1752 22.5,25.5C 21.9228,32.093 21.0895,38.7596 20,45.5C 19.0553,36.0654 19.3886,26.7321 21,17.5C 27.9202,14.8718 34.7535,14.8718 41.5,17.5 Z"/></g>
<g><path style="opacity:1" fill="#013854" d="M 39.5,40.5 C 40.4372,44.7303 38.7705,47.2303 34.5,48C 30.3773,48.4366 26.3773,47.9366 22.5,46.5C 22.5,44.5 22.5,42.5 22.5,40.5C 28.1802,41.78 33.8469,41.78 39.5,40.5 Z"/></g>
<g><path style="opacity:1" fill="#0d4d6d" d="M 39.5,40.5 C 39.8333,40.5 40.1667,40.5 40.5,40.5C 40.5,40.8333 40.5,41.1667 40.5,41.5C 41.9602,46.9915 39.9602,50.1582 34.5,51C 31.406,51.6518 28.406,51.3185 25.5,50C 23.5743,49.5776 22.5743,48.4109 22.5,46.5C 26.3773,47.9366 30.3773,48.4366 34.5,48C 38.7705,47.2303 40.4372,44.7303 39.5,40.5 Z"/></g>
<g><path style="opacity:0.102" fill="#02405b" d="M 43.5,55.5 C 43.0334,58.2974 41.3667,59.6308 38.5,59.5C 40.1423,58.197 41.8089,56.8637 43.5,55.5 Z"/></g>
<g><path style="opacity:0.735" fill="#013f5c" d="M 18.5,53.5 C 19.9774,55.807 21.9774,57.6403 24.5,59C 29.1548,59.4992 33.8215,59.6658 38.5,59.5C 33.6842,60.6497 28.6842,60.8163 23.5,60C 20.4659,58.8088 18.7993,56.6421 18.5,53.5 Z"/></g>
</svg>
