<svg width="64" height="64" viewBox="0 0 64 64" fill="none" xmlns="http://www.w3.org/2000/svg">
<circle cx="32" cy="32" r="32" fill="#F9F9F9"/>
<path d="M32 17.333C25.3333 17.333 20 22.6663 20 29.333V38.6663C20 39.7272 20.4214 40.7446 21.1716 41.4948C21.9217 42.2449 22.9391 42.6663 24 42.6663H28V31.9997H22.6667V29.333C22.6667 26.8577 23.65 24.4837 25.4003 22.7333C27.1507 20.983 29.5246 19.9997 32 19.9997C34.4754 19.9997 36.8493 20.983 38.5997 22.7333C40.35 24.4837 41.3333 26.8577 41.3333 29.333V31.9997H36V42.6663H41.3333V43.9997H32V46.6663H40C41.0609 46.6663 42.0783 46.2449 42.8284 45.4948C43.5786 44.7446 44 43.7272 44 42.6663V29.333C44 22.6663 38.6267 17.333 32 17.333Z" fill="#1C1D20"/>
</svg>
