<?xml version="1.0" encoding="UTF-8"?>
<svg version="1.1" xmlns="http://www.w3.org/2000/svg" width="512" height="512">
<path d="M0 0 C4.8390774 -0.08648836 9.67103014 -0.05561221 14.50976562 0.05029297 C15.89083496 0.07712158 15.89083496 0.07712158 17.29980469 0.10449219 C68.80712275 1.22993119 116.53843895 10.16376787 155.50976562 46.05029297 C156.01121094 46.50791016 156.51265625 46.96552734 157.02929688 47.43701172 C170.46168307 59.82812766 175.37355649 71.41217541 176.10571289 89.40869141 C176.53743989 98.72770054 177.84978447 106.21504915 184.50976562 113.05029297 C186.77962136 117.59000444 185.94668184 124.089367 186.0246582 129.12329102 C186.05608046 130.6839297 186.10360557 132.24433771 186.16821289 133.80395508 C186.56669371 143.5682958 186.23797253 150.06789729 179.63061523 157.87084961 C178.93073486 158.59006592 178.23085449 159.30928223 177.50976562 160.05029297 C176.84307861 160.79819092 176.1763916 161.54608887 175.48950195 162.31665039 C172.42227057 165.00260551 169.11851866 164.47755018 165.25976562 164.30029297 C164.5146875 164.28224609 163.76960938 164.26419922 163.00195312 164.24560547 C161.17066861 164.19864946 159.34004914 164.12690949 157.50976562 164.05029297 C157.59226562 165.30841797 157.67476563 166.56654297 157.75976562 167.86279297 C157.72708226 178.27244567 152.47931185 187.7755155 145.47460938 195.21044922 C135.71842677 204.41601834 125.68566795 207.51753952 112.50976562 208.05029297 C99.82857468 207.5811797 89.29233167 202.01844247 80.70507812 192.82373047 C74.01594514 184.37304645 70.50976562 174.80447965 70.50976562 164.05029297 C68.19976562 163.72029297 65.88976562 163.39029297 63.50976562 163.05029297 C62.51976562 165.03029297 61.52976562 167.01029297 60.50976562 169.05029297 C27.87162027 169.09591254 -4.76651591 169.13130942 -37.40468586 169.15242363 C-41.25742084 169.15492506 -45.11015575 169.1575137 -48.96289062 169.16015625 C-49.72990476 169.16068087 -50.49691889 169.16120549 -51.28717588 169.16174601 C-63.7085629 169.17044997 -76.12993141 169.18621991 -88.55130745 169.20459856 C-101.29561512 169.22329784 -114.0399131 169.23440975 -126.78423393 169.23846996 C-134.64893337 169.24121496 -142.51358053 169.24988666 -150.37826388 169.2661259 C-156.40765906 169.27794184 -162.43700921 169.27920424 -168.46641731 169.27650833 C-170.94078837 169.27705944 -173.41516137 169.28104942 -175.88952065 169.28870392 C-179.26375156 169.29863191 -182.63775745 169.29626954 -186.01199341 169.290802 C-186.99449007 169.29662768 -187.97698673 169.30245337 -188.98925602 169.30845559 C-193.89585119 169.2869179 -197.88792373 168.98330664 -202.49023438 167.05029297 C-202.58820313 167.66775391 -202.68617188 168.28521484 -202.78710938 168.92138672 C-205.1702316 182.41889793 -211.39127602 192.86580929 -222.49023438 201.05029297 C-231.83907475 207.40615927 -243.65631547 208.96123803 -254.74023438 207.55029297 C-266.18920927 205.06813039 -275.26426248 199.24931393 -282.49023438 190.05029297 C-288.49023438 180.09029297 -288.49023438 180.09029297 -288.49023438 176.05029297 C-289.18246094 176.09669922 -289.8746875 176.14310547 -290.58789062 176.19091797 C-301.74002684 176.60232747 -314.79066298 174.69537086 -323.49023438 167.05029297 C-330.73994 156.17573453 -328.00648494 128.75486838 -325.77148438 116.12060547 C-324.28622058 109.52496035 -321.89804622 103.23454864 -317.49023438 98.05029297 C-316.98363281 97.44958984 -316.47703125 96.84888672 -315.95507812 96.22998047 C-311.95330269 92.16663926 -307.51895965 90.06097594 -302.21679688 88.14404297 C-301.16399284 87.75742996 -301.16399284 87.75742996 -300.08992004 87.36300659 C-292.54702014 84.63828452 -284.8940544 82.35084397 -277.17773438 80.17529297 C-276.44043091 79.96540741 -275.70312744 79.75552185 -274.94348145 79.53927612 C-255.9910073 74.16064586 -236.78323376 69.59478945 -217.4347229 65.87626648 C-199.97693409 62.507265 -184.89934925 55.39687999 -170.83789062 44.50341797 C-164.11509133 39.4474454 -156.72428701 35.31972512 -149.49023438 31.05029297 C-148.81976074 30.6477832 -148.14928711 30.24527344 -147.45849609 29.83056641 C-133.08328872 21.2162912 -117.90568603 14.3721752 -101.80273438 9.67529297 C-101.03356689 9.4488208 -100.26439941 9.22234863 -99.47192383 8.98901367 C-84.53081433 4.89064316 -69.14348768 3.45871772 -53.74023438 2.42529297 C-51.94270771 2.29924389 -50.14518168 2.17318582 -48.34765625 2.04711914 C-32.23867655 0.9422014 -16.14365192 0.32603846 0 0 Z " fill="#E04B4A" transform="translate(326.490234375,151.94970703125)"/>
<path d="M0 0 C10.09077101 7.57872253 20.08120055 19.05294919 22 32 C22.29415584 37.33510046 22.17681195 42.66289867 22 48 C19.36 47.67 16.72 47.34 14 47 C13.90203125 47.61746094 13.8040625 48.23492187 13.703125 48.87109375 C11.32000278 62.36860496 5.09895836 72.81551632 -6 81 C-15.34884037 87.3558663 -27.1660811 88.91094506 -38.25 87.5 C-49.69897489 85.01783742 -58.77402811 79.19902096 -66 70 C-72 60.04 -72 60.04 -72 56 C-75.3 56 -78.6 56 -82 56 C-85.52689371 40.86016357 -81.98861956 26.73273488 -73.90625 13.71875 C-65.68473754 1.99298633 -53.37758165 -5.29623658 -39.55078125 -8.58203125 C-25.94868546 -10.81085858 -11.54237007 -7.52199398 0 0 Z " fill="#3E4347" transform="translate(110,272)"/>
<path d="M0 0 C10.20507895 7.66457406 19.85386176 18.99310159 22 32 C22.20953839 36.01534028 22.18345262 39.98442593 22 44 C19.03 44 16.06 44 13 44 C13.0825 45.258125 13.165 46.51625 13.25 47.8125 C13.21731663 58.2221527 7.96954623 67.72522253 0.96484375 75.16015625 C-8.79133886 84.36572538 -18.82409768 87.46724655 -32 88 C-44.68119095 87.53088673 -55.21743395 81.9681495 -63.8046875 72.7734375 C-70.49382048 64.32275349 -74 54.75418668 -74 44 C-76.97 43.67 -79.94 43.34 -83 43 C-84.15121884 30.62439752 -77.74463115 18.10776396 -70.15625 8.71875 C-51.67634772 -10.97294915 -22.77967448 -14.84518112 0 0 Z " fill="#3E4347" transform="translate(471,272)"/>
<path d="M0 0 C1.19947266 0.00451172 2.39894531 0.00902344 3.63476562 0.01367188 C6.56906359 0.02536231 9.50325449 0.04174862 12.4375 0.0625 C11.85936983 8.85897288 10.0032905 17.24083288 8.05395508 25.81323242 C7.49916062 28.25369231 6.95296079 30.695954 6.40820312 33.13867188 C6.05518413 34.71104908 5.70168505 36.2833186 5.34765625 37.85546875 C5.18612564 38.57542526 5.02459503 39.29538177 4.85816956 40.03715515 C3.8577681 44.4266547 2.71063849 48.74399449 1.4375 53.0625 C0.4666748 53.13243164 -0.50415039 53.20236328 -1.50439453 53.27441406 C-21.82891899 54.74429203 -42.13842658 56.33617349 -62.4375 58.125 C-89.19110062 60.47664944 -89.19110062 60.47664944 -99.6875 61.3125 C-100.65026855 61.39250244 -101.61303711 61.47250488 -102.60498047 61.55493164 C-109.26516405 62.07172165 -115.88399215 62.14101936 -122.5625 62.0625 C-114.59293488 43.15484048 -99.68109495 34.04394865 -82.5625 24.0625 C-81.68883789 23.55267578 -80.81517578 23.04285156 -79.91503906 22.51757812 C-62.38037216 12.45768923 -42.70677362 3.94025337 -22.5625 1.0625 C-21.93738525 0.9704126 -21.31227051 0.8783252 -20.66821289 0.78344727 C-13.78516785 -0.11858851 -6.93128794 -0.04986538 0 0 Z " fill="#5A5E62" transform="translate(274.5625,166.9375)"/>
<path d="M0 0 C20.75945231 -0.29137646 41.48420996 -0.5065497 62.1875 1.25 C63.22639877 1.33201157 63.22639877 1.33201157 64.2862854 1.41567993 C86.17661835 3.19189866 101.95922068 8.62580766 116.91015625 25.10546875 C119.85178797 29.07953946 120.17042437 31.85128806 119.60546875 36.75 C119.4974292 37.73484375 119.38938965 38.7196875 119.27807617 39.734375 C119.18631104 40.48203125 119.0945459 41.2296875 119 42 C113.8339373 42.46531864 108.66724564 42.92303761 103.5 43.375 C102.72122498 43.44313904 101.94244995 43.51127808 101.14007568 43.58148193 C88.11900022 44.7131838 75.09468665 45.62632618 62.04492188 46.35302734 C60.79517578 46.42473145 59.54542969 46.49643555 58.2578125 46.5703125 C57.1661377 46.62977051 56.07446289 46.68922852 54.94970703 46.75048828 C52.22503025 46.980965 49.67267899 47.44291347 47 48 C44.28930591 48.17751947 41.58816231 48.32244073 38.875 48.4375 C32.29736884 48.75043087 25.79073701 49.30522137 19.25 50.0625 C11.44865504 50.95616243 3.85676602 51.18361977 -4 51 C-4.22703428 41.17610614 -3.62225429 31.52784813 -2.77319336 21.74829102 C-2.55957786 19.27871759 -2.35642513 16.80842821 -2.15429688 14.33789062 C-2.02144233 12.76296934 -1.88800127 11.1880974 -1.75390625 9.61328125 C-1.6934462 8.87692947 -1.63298615 8.1405777 -1.57069397 7.38191223 C-1.11536516 2.23073031 -1.11536516 2.23073031 0 0 Z " fill="#5A5E62" transform="translate(307,166)"/>
<path d="M0 0 C7.77650907 4.36621273 13.3142052 10.69890128 15.9609375 19.30078125 C17.69341043 28.25766631 15.8762415 35.98187295 10.87890625 43.55078125 C5.96219947 49.74606426 -0.24393194 52.85214398 -7.6484375 55.3203125 C-17.36798722 56.29226747 -24.27261369 54.22470216 -31.8984375 48.1953125 C-37.12169159 43.37865902 -41.17184396 36.08624793 -41.88671875 28.9375 C-42.1538272 19.06854572 -39.3448245 12.35503688 -32.65234375 5.11328125 C-23.24813159 -3.30101384 -11.50387568 -5.22239436 0 0 Z " fill="#C3CED7" transform="translate(453.6484375,289.6796875)"/>
<path d="M0 0 C7.78163765 4.36909224 13.33344775 10.71323619 15.96484375 19.328125 C17.49760189 27.22415179 16.10313492 34.50506077 12.1328125 41.453125 C7.51385743 48.20193158 0.47723393 53.69517821 -7.6484375 55.3203125 C-17.37611982 56.29460306 -24.25452176 54.23900663 -31.8984375 48.1953125 C-37.12169159 43.37865902 -41.17184396 36.08624793 -41.88671875 28.9375 C-42.14819341 19.27669957 -39.46170716 12.26490985 -32.8203125 5.18359375 C-22.94684365 -3.28699013 -11.84884567 -5.37899978 0 0 Z " fill="#C3CED8" transform="translate(92.6484375,289.6796875)"/>
<path d="M0 0 C8.58 0 17.16 0 26 0 C25.35629939 6.43700606 24.65083255 12.37176785 23.22265625 18.60546875 C23.05124619 19.37377518 22.87983612 20.1420816 22.70323181 20.93367004 C22.34372335 22.53997556 21.98144258 24.145663 21.61645508 25.75073242 C21.06166062 28.19119231 20.51546079 30.633454 19.97070312 33.07617188 C19.61768413 34.64854908 19.26418505 36.2208186 18.91015625 37.79296875 C18.74862564 38.51292526 18.58709503 39.23288177 18.42066956 39.97465515 C17.4202681 44.3641547 16.27313849 48.68149449 15 53 C9.4134667 53.430144 3.82671593 53.85730181 -1.76025391 54.28173828 C-3.65940462 54.4264324 -5.55849422 54.57193103 -7.45751953 54.71826172 C-10.19287557 54.92889416 -12.92844098 55.13659756 -15.6640625 55.34375 C-16.50804596 55.40937134 -17.35202942 55.47499268 -18.22158813 55.54260254 C-22.49334814 55.86316594 -26.71213479 56.07277848 -31 56 C-24.39448258 44.01299076 -17.10789767 32.46587554 -9.81689453 20.88769531 C-7.22257805 16.76439844 -4.64210663 12.6325089 -2.0625 8.5 C-1.26180183 7.21869808 -0.46103055 5.93744184 0.33984375 4.65625 C0.88769531 3.7796875 1.43554688 2.903125 2 2 C1.34 1.34 0.68 0.68 0 0 Z " fill="#3F4347" transform="translate(261,167)"/>
<path d="M0 0 C15.34991818 1.97109704 27.36262815 10.17632794 37.21875 21.91796875 C39.87709965 25.7117491 39.98108178 28.46865877 39.46484375 33.046875 C39.35849609 34.03397461 39.25214844 35.02107422 39.14257812 36.03808594 C39.05298828 36.78864258 38.96339844 37.53919922 38.87109375 38.3125 C34.19810391 38.72456041 29.5248385 39.13330494 24.85131836 39.53930664 C23.26986337 39.67712303 21.68847974 39.81576145 20.10717773 39.95532227 C-8.75461666 42.5005999 -8.75461666 42.5005999 -21.69140625 42.375 C-23.54958984 42.36146484 -23.54958984 42.36146484 -25.4453125 42.34765625 C-26.33089844 42.33605469 -27.21648437 42.32445312 -28.12890625 42.3125 C-23.14010891 33.259347 -17.79252656 24.45350438 -12.31640625 15.6875 C-11.65825928 14.63240234 -11.0001123 13.57730469 -10.32202148 12.49023438 C-2.73969512 0.40215708 -2.73969512 0.40215708 0 0 Z " fill="#3F4347" transform="translate(387.12890625,169.6875)"/>
<path d="M0 0 C10.09077101 7.57872253 20.08120055 19.05294919 22 32 C22.29415584 37.33510046 22.17681195 42.66289867 22 48 C19.36 47.67 16.72 47.34 14 47 C13.87882812 46.443125 13.75765625 45.88625 13.6328125 45.3125 C13.27939839 43.70310652 12.91953754 42.0951208 12.5546875 40.48828125 C12.08802018 38.39485109 11.66399604 36.29197986 11.25 34.1875 C8.43771705 23.34939416 2.68921953 14.43309223 -6.640625 8.25 C-17.76161177 1.78864456 -30.11199827 -0.03997312 -42.70703125 3.171875 C-54.55864682 7.4521859 -61.93218755 14.14101881 -68 25 C-70.41557881 30.27751458 -72.13924818 35.50525443 -72.09765625 41.328125 C-72.09443359 42.12734375 -72.09121094 42.9265625 -72.08789062 43.75 C-72.07951172 44.575 -72.07113281 45.4 -72.0625 46.25 C-72.05798828 47.09046875 -72.05347656 47.9309375 -72.04882812 48.796875 C-72.03707961 50.86461401 -72.01914522 52.93231624 -72 55 C-75.3 55 -78.6 55 -82 55 C-85.37798078 41.48807687 -82.33026893 28.70364327 -75.75 16.6875 C-67.46805637 3.35216704 -54.76911128 -4.9655541 -39.55078125 -8.58203125 C-25.94868546 -10.81085858 -11.54237007 -7.52199398 0 0 Z " fill="#313235" transform="translate(110,272)"/>
<path d="M0 0 C10.20507895 7.66457406 19.85386176 18.99310159 22 32 C22.20953839 36.01534028 22.18345262 39.98442593 22 44 C19.03 44 16.06 44 13 44 C12.93683594 43.29617188 12.87367188 42.59234375 12.80859375 41.8671875 C11.39454946 30.46552515 6.90305646 19.49675882 -1.76953125 11.6796875 C-13.16421884 3.09874939 -24.34281834 0.81322617 -38.37890625 2.2421875 C-46.10990515 3.59753257 -53.48070461 7.46417977 -59 13 C-59.66 13 -60.32 13 -61 13 C-61.27070313 13.57234375 -61.54140625 14.1446875 -61.8203125 14.734375 C-63 17 -63 17 -64.3671875 19.015625 C-69.41982111 26.50294734 -71.16360066 34.29330667 -73 43 C-76.3 43 -79.6 43 -83 43 C-84.15121884 30.62439752 -77.74463115 18.10776396 -70.15625 8.71875 C-51.67634772 -10.97294915 -22.77967448 -14.84518112 0 0 Z " fill="#323235" transform="translate(471,272)"/>
<path d="M0 0 C14.19 0 28.38 0 43 0 C43 0.33 43 0.66 43 1 C42.36876221 0.93586914 41.73752441 0.87173828 41.0871582 0.80566406 C38.0700195 0.75918114 35.85975798 1.00163209 33 2 C29.63709143 5.46768416 27.49424545 9.5307335 25.1875 13.75 C24.50998828 14.92788282 23.82879055 16.10365264 23.14404297 17.27734375 C21.7527539 19.66935017 20.37837579 22.06986813 19.01611328 24.47851562 C16.02612156 29.73813625 12.82374822 34.86565722 9.625 40 C9.08383545 40.88268555 8.5426709 41.76537109 7.98510742 42.67480469 C7.4872876 43.48336914 6.98946777 44.29193359 6.4765625 45.125 C6.04424316 45.82882813 5.61192383 46.53265625 5.16650391 47.2578125 C4 49 4 49 2 51 C-1.125 51.125 -1.125 51.125 -4 51 C-4.22703428 41.17610614 -3.62225429 31.52784813 -2.77319336 21.74829102 C-2.55957786 19.27871759 -2.35642513 16.80842821 -2.15429688 14.33789062 C-2.02144233 12.76296934 -1.88800127 11.1880974 -1.75390625 9.61328125 C-1.6934462 8.87692947 -1.63298615 8.1405777 -1.57069397 7.38191223 C-1.11536516 2.23073031 -1.11536516 2.23073031 0 0 Z " fill="#414347" transform="translate(307,166)"/>
<path d="M0 0 C0.66 0.33 1.32 0.66 2 1 C-1.06424322 6.28417109 -4.16091652 11.54628921 -7.30859375 16.78125 C-9.69474656 20.75423483 -11.96698163 24.76148766 -14.16015625 28.84375 C-21.96794429 42.83095063 -21.96794429 42.83095063 -28.17578125 44.6875 C-31.79734986 45.32771919 -35.30971679 45.35618924 -38.97265625 45.12597656 C-42.00472372 44.93756775 -45.02681894 45.06056337 -48.0625 45.125 C-49.70857006 45.09406714 -51.35462859 45.0570649 -53 45 C-43.99059599 22.71357955 -22.40288349 11.87983855 -2.265625 0.94140625 C-1.51796875 0.63074219 -0.7703125 0.32007813 0 0 Z " fill="#404347" transform="translate(205,184)"/>
<path d="M0 0 C4.95170091 2.84264311 8.55208681 6.46876044 10.375 11.9375 C10.96264976 17.93152751 9.71771895 22.04646644 6.375 26.9375 C2.07539177 31.59349286 -1.35977866 32.75482086 -7.5 33.25 C-11.87879678 33.17688465 -14.2489094 31.78842095 -17.625 28.9375 C-22.48282366 23.79083277 -23.99320071 20.48883284 -23.90234375 13.47265625 C-23.33943474 8.32719224 -20.24135041 5.35283173 -16.5 2.125 C-11.10092399 -1.98299261 -6.3480327 -1.86063027 0 0 Z " fill="#C9D4DE" transform="translate(86.625,300.0625)"/>
<path d="M0 0 C4.95170091 2.84264311 8.55208681 6.46876044 10.375 11.9375 C10.96264976 17.93152751 9.71771895 22.04646644 6.375 26.9375 C2.07539177 31.59349286 -1.35977866 32.75482086 -7.5 33.25 C-11.87879678 33.17688465 -14.2489094 31.78842095 -17.625 28.9375 C-22.40272148 23.99191263 -24.00151693 20.01371599 -23.90234375 13.21484375 C-23.29890961 8.25988458 -20.11418321 5.23426055 -16.5 2.125 C-11.10092399 -1.98299261 -6.3480327 -1.86063027 0 0 Z " fill="#C9D4DE" transform="translate(447.625,300.0625)"/>
<path d="M0 0 C5.77441941 3.27279797 8.66496548 8.26743097 11.5625 14.0625 C12.44147862 22.34047582 12.24233626 29.03274241 7.41796875 36 C3.23494114 40.64976543 -1.98027888 43.72731236 -8.2578125 44.3359375 C-16.84805291 44.59994016 -22.60913478 43.48751285 -29.02734375 37.60546875 C-34.46429532 31.63270166 -34.90497538 24.97057031 -34.73828125 17.25 C-34.19409176 11.48300493 -32.52011965 7.99099076 -28.2734375 4.05859375 C-19.88369306 -2.7051253 -10.20092307 -4.51135048 0 0 Z M-27.4375 14.0625 C-29.1691936 17.5258872 -28.77768962 21.26906477 -28.4375 25.0625 C-26.59858509 30.57924474 -22.99611354 33.69022444 -18.4375 37.0625 C-14.02834252 39.26707874 -9.25873453 38.31304613 -4.75 36.9375 C-0.09478021 34.30246993 2.31655968 31.37638916 4.875 26.625 C6.18071994 21.75822567 6.23348379 17.82617886 3.8125 13.375 C0.53390914 8.26223243 -2.37517866 5.46149723 -8.4375 4.0625 C-17.4503245 2.87280717 -22.19082421 7.16686896 -27.4375 14.0625 Z " fill="#94999B" transform="translate(452.4375,294.9375)"/>
<path d="M0 0 C5.77441941 3.27279797 8.66496548 8.26743097 11.5625 14.0625 C12.44147862 22.34047582 12.24233626 29.03274241 7.41796875 36 C3.23494114 40.64976543 -1.98027888 43.72731236 -8.2578125 44.3359375 C-16.84805291 44.59994016 -22.60913478 43.48751285 -29.02734375 37.60546875 C-34.46429532 31.63270166 -34.90497538 24.97057031 -34.73828125 17.25 C-34.19409176 11.48300493 -32.52011965 7.99099076 -28.2734375 4.05859375 C-19.88369306 -2.7051253 -10.20092307 -4.51135048 0 0 Z M-27.4375 14.0625 C-29.29464672 17.77679344 -28.88097927 22.00872471 -28.4375 26.0625 C-25.87243036 31.2912958 -21.6822046 35.4401477 -16.4375 38.0625 C-10.59289508 38.4587444 -6.66553542 38.02176533 -1.4375 35.0625 C3.01629421 30.96218152 5.27343711 26.66406603 5.9375 20.6875 C5.37641172 15.26364661 3.06442153 11.91486988 -0.3125 7.75 C-4.535618 4.39634747 -9.21231118 3.58920853 -14.48828125 3.75 C-20.42282047 4.70142913 -24.02047836 9.57155728 -27.4375 14.0625 Z " fill="#94989B" transform="translate(91.4375,294.9375)"/>
<path d="M0 0 C1.875 1.875 1.875 1.875 3 4.6875 C2.83299691 8.94607892 0.79783614 11.00935187 -2.125 13.875 C-13.62417111 21.89948932 -28.28480742 24.45830314 -42.125 23.875 C-42.785 23.545 -43.445 23.215 -44.125 22.875 C-44.01025454 19.08839991 -42.72263861 17.13630612 -40.1875 14.5 C-29.63242546 4.63143437 -14.92656116 -5.37356202 0 0 Z " fill="#FED43B" transform="translate(53.125,244.125)"/>
<path d="M0 0 C3.96 0.33 7.92 0.66 12 1 C10.40463727 4.98840682 8.82531259 8.1134687 6.5859375 11.71875 C5.90660156 12.81703125 5.22726562 13.9153125 4.52734375 15.046875 C3.81001479 16.1979908 3.09256658 17.34903231 2.375 18.5 C1.68792969 19.60859375 1.00085938 20.7171875 0.29296875 21.859375 C-1.09637034 24.10108534 -2.49124604 26.33937362 -3.89160156 28.57421875 C-5.35491068 30.92542602 -6.75822215 33.30237983 -8.13183594 35.70703125 C-8.48079926 36.30616333 -8.82976257 36.90529541 -9.18930054 37.52258301 C-10.15587862 39.18647051 -11.10651472 40.85958932 -12.05615234 42.53320312 C-14 45 -14 45 -16.58325195 45.85131836 C-19.00355011 46.00021841 -21.38755493 46.09869321 -23.8125 46.0625 C-24.60269531 46.05347656 -25.39289063 46.04445312 -26.20703125 46.03515625 C-26.79871094 46.02355469 -27.39039063 46.01195312 -28 46 C-19.81774467 30.0464702 -9.7667861 15.01611816 0 0 Z " fill="#5A5E62" transform="translate(373,168)"/>
<path d="M0 0 C1.40765625 -0.00386719 1.40765625 -0.00386719 2.84375 -0.0078125 C5.2214263 0.11107132 7.22683096 0.44948278 9.5 1.125 C10.70516286 6.01654337 10.83461434 10.92775122 11.0625 15.9375 C11.10568359 16.82115234 11.14886719 17.70480469 11.19335938 18.61523438 C11.29891536 20.78499623 11.39991071 22.9549791 11.5 25.125 C7.44960826 25.87350757 3.55636064 26.31122409 -0.5625 26.375 C-1.56410156 26.40078125 -2.56570313 26.4265625 -3.59765625 26.453125 C-6.97494592 26.0713049 -8.80947128 25.17766719 -11.5 23.125 C-12.67629473 19.59611581 -12.72181837 16.36168023 -12.75 12.6875 C-12.77578125 11.36878906 -12.8015625 10.05007812 -12.828125 8.69140625 C-12.48934416 5.00918119 -12.19563152 3.59599556 -9.5 1.125 C-6.4120301 -0.11803873 -3.30031241 -0.00906679 0 0 Z " fill="#FDD23B" transform="translate(491.5,223.875)"/>
<path d="M0 0 C-1.43860566 3.91393929 -3.28468332 7.31916926 -5.45703125 10.875 C-5.79662369 11.43321945 -6.13621613 11.9914389 -6.48609924 12.5665741 C-7.59090323 14.38019122 -8.70131941 16.19028381 -9.8125 18 C-10.57844982 19.25160982 -11.34423624 20.50331965 -12.10986328 21.75512695 C-13.27299807 23.6558471 -14.43686188 25.55610465 -15.60272217 27.45515442 C-18.05682817 31.45272515 -20.48976134 35.46235005 -22.91015625 39.48046875 C-24.06479175 41.38300214 -25.21972037 43.28535768 -26.375 45.1875 C-26.90327393 46.07115234 -27.43154785 46.95480469 -27.97583008 47.86523438 C-28.46591553 48.66638672 -28.95600098 49.46753906 -29.4609375 50.29296875 C-30.09201416 51.33747192 -30.09201416 51.33747192 -30.73583984 52.40307617 C-32 54 -32 54 -35 55 C-37.33299825 55.03954234 -39.66708189 55.04401732 -42 55 C-35.96784367 44.0534671 -29.37241905 33.48220047 -22.7109375 22.91015625 C-20.41616372 19.26824569 -18.14575505 15.6144852 -15.9140625 11.93359375 C-15.45821777 11.1864209 -15.00237305 10.43924805 -14.53271484 9.66943359 C-13.70069687 8.30279577 -12.87508935 6.93222656 -12.05712891 5.55712891 C-8.70243064 0.07773894 -6.21330778 -0.13807351 0 0 Z " fill="#404347" transform="translate(249,170)"/>
<path d="M0 0 C1.16595703 0.13921875 1.16595703 0.13921875 2.35546875 0.28125 C3.14566406 0.3534375 3.93585938 0.425625 4.75 0.5 C5.34167969 0.5928125 5.93335938 0.685625 6.54296875 0.78125 C1.80555792 10.01811952 -3.68254105 18.78474427 -9.2109375 27.5625 C-11.2167624 30.75223376 -13.14739676 33.96033608 -14.984375 37.25 C-20.17924245 46.35662493 -20.17924245 46.35662493 -24.0078125 47.62890625 C-26.343189 47.65433026 -28.22551784 47.44595612 -30.45703125 46.78125 C-23.81286396 34.72410297 -16.51578348 23.07679651 -9.12817383 11.46386719 C-8.06835999 9.76259115 -7.04033669 8.0407504 -6.05737305 6.29394531 C-3.02236176 0.96100533 -3.02236176 0.96100533 0 0 Z " fill="#3F4347" transform="translate(366.45703125,167.21875)"/>
</svg>
