<?xml version="1.0" standalone="no"?>
<!DOCTYPE svg PUBLIC "-//W3C//DTD SVG 20010904//EN"
 "http://www.w3.org/TR/2001/REC-SVG-20010904/DTD/svg10.dtd">
<svg version="1.0" xmlns="http://www.w3.org/2000/svg"
 width="32.000000pt" height="32.000000pt" viewBox="0 0 32.000000 32.000000"
 preserveAspectRatio="xMidYMid meet">

<g transform="translate(0.000000,32.000000) scale(0.100000,-0.100000)"
fill="#000000" stroke="none">
<path d="M190 245 c-47 -24 -82 -44 -77 -44 4 -1 39 15 78 35 39 19 73 33 76
31 2 -3 -7 -28 -21 -56 -14 -28 -26 -54 -26 -58 1 -9 69 118 70 130 0 12 -12
8 -100 -38z"/>
<path d="M40 170 c-13 -8 -12 -10 3 -10 9 0 17 5 17 10 0 12 -1 12 -20 0z"/>
<path d="M103 153 c9 -2 23 -2 30 0 6 3 -1 5 -18 5 -16 0 -22 -2 -12 -5z"/>
<path d="M152 115 c0 -16 2 -22 5 -12 2 9 2 23 0 30 -3 6 -5 -1 -5 -18z"/>
<path d="M160 45 c0 -19 6 -19 14 0 3 8 1 15 -4 15 -6 0 -10 -7 -10 -15z"/>
</g>
</svg>
