<svg version="1.1" xmlns="http://www.w3.org/2000/svg" xmlns:xlink="http://www.w3.org/1999/xlink" width="32.000000pt" height="32.000000pt" viewBox="0,0,256,256"><g fill="#ffffff" fill-rule="nonzero" stroke="none" stroke-width="1" stroke-linecap="butt" stroke-linejoin="miter" stroke-miterlimit="10" stroke-dasharray="" stroke-dashoffset="0" font-family="none" font-weight="none" font-size="none" text-anchor="none" style="mix-blend-mode: normal"><g transform="translate(-0.37857,-0.18875) scale(8,8)"><g transform="translate(0,32) scale(0.1,-0.1)"><path d="M190,245c-47,-24 -82,-44 -77,-44c4,-1 39,15 78,35c39,19 73,33 76,31c2,-3 -7,-28 -21,-56c-14,-28 -26,-54 -26,-58c1,-9 69,118 70,130c0,12 -12,8 -100,-38z"></path><path d="M40,170c-13,-8 -12,-10 3,-10c9,0 17,5 17,10c0,12 -1,12 -20,0z"></path><path d="M103,153c9,-2 23,-2 30,0c6,3 -1,5 -18,5c-16,0 -22,-2 -12,-5z"></path><path d="M152,115c0,-16 2,-22 5,-12c2,9 2,23 0,30c-3,6 -5,-1 -5,-18z"></path><path d="M160,45c0,-19 6,-19 14,0c3,8 1,15 -4,15c-6,0 -10,-7 -10,-15z"></path></g></g></g></svg>