<svg width="64" height="64" viewBox="0 0 64 64" fill="none" xmlns="http://www.w3.org/2000/svg">
<circle cx="32" cy="32" r="32" fill="#F03D3D"/>
<path d="M32.5883 20.5234C34.0027 20.5234 35.3593 21.0853 36.3595 22.0855C37.3597 23.0857 37.9216 24.4423 37.9216 25.8568C37.9216 28.4568 36.0549 30.6301 33.5883 31.0968L27.3483 24.8568C27.8149 22.3901 29.9883 20.5234 32.5883 20.5234ZM32.9616 33.8568L40.9616 41.8568L43.2549 44.1501L41.5616 45.8568L37.5616 41.8568H21.9216V39.1901C21.9216 36.7368 25.2549 34.6701 29.7483 34.0434L20.2949 24.5901L21.9883 22.8968L32.9616 33.8568ZM43.2549 39.1901V40.7634L36.7749 34.2834C40.5883 35.0968 43.2549 36.9901 43.2549 39.1901Z" fill="white"/>
</svg>
